<svg width="64" height="64" viewBox="0 0 64 64" fill="none" xmlns="http://www.w3.org/2000/svg">
<path d="M45.0826 19.1554C45.0954 19.1554 45.1124 19.1554 45.1293 19.1554C45.5734 19.1554 45.9857 19.2935 46.3235 19.5315L46.3171 19.5272C46.5636 19.7418 46.7294 20.0436 46.7697 20.3835V20.3899C46.8122 20.6491 46.8356 20.9466 46.8356 21.2505C46.8356 21.3886 46.8313 21.5246 46.8207 21.6606V21.6414C46.3426 26.6752 44.2688 38.8823 43.2149 44.5174C42.7687 46.9036 41.8911 47.7025 41.0412 47.779C39.1947 47.9511 37.7923 46.5594 36.0032 45.3865C33.2027 43.5485 31.6197 42.4053 28.902 40.6141C25.7594 38.5466 27.7971 37.4056 29.5862 35.5485C30.0558 35.0598 38.196 27.6547 38.3554 26.9833C38.3639 26.9429 38.3681 26.8983 38.3681 26.8515C38.3681 26.6858 38.3065 26.5349 38.2066 26.4202C38.0962 26.3479 37.958 26.3076 37.8135 26.3076C37.7179 26.3076 37.6266 26.3267 37.5416 26.3586L37.5458 26.3564C37.2653 26.4202 32.7919 29.3765 24.1254 35.2255C23.1798 35.9713 21.9857 36.443 20.6853 36.4983H20.6725C18.8303 36.2752 17.158 35.8651 15.5708 35.2807L15.728 35.3317C13.7349 34.6815 12.1519 34.3394 12.2879 33.2388C12.3602 32.6665 13.1492 32.0807 14.655 31.4815C23.9306 27.4401 30.116 24.7762 33.2112 23.49C36.6258 21.6776 40.5843 20.1859 44.7469 19.2191L45.0805 19.1533L45.0826 19.1554ZM31.9256 0C14.2853 0.0424967 0 14.3533 0 32C0 49.6722 14.3256 64 32 64C49.6744 64 64 49.6744 64 32C64 14.3533 49.7147 0.0424967 32.0786 0H32.0744C32.0248 0 31.9752 0 31.9256 0Z" fill="#E3BF6D"/>
</svg>
