<svg width="64" height="64" viewBox="0 0 64 64" fill="none" xmlns="http://www.w3.org/2000/svg">
<path d="M32 0C14.325 0 0 14.325 0 32C0 49.675 14.325 64 32 64C49.675 64 64 49.675 64 32C64 14.325 49.675 0 32 0ZM44.775 27.025C44.7875 27.3 44.7875 27.5875 44.7875 27.875C44.7875 36.5625 38.175 46.5875 26.075 46.5875C22.3625 46.5875 18.9 45.5 16 43.6375C16.5125 43.7 17.0375 43.725 17.575 43.725C20.65 43.725 23.4875 42.675 25.7375 40.9125C22.8625 40.8625 20.425 38.9625 19.6 36.35C20 36.425 20.4125 36.4625 20.8375 36.4625C21.4375 36.4625 22.025 36.3875 22.575 36.225C19.5625 35.625 17.3 32.9625 17.3 29.775V29.7C18.1875 30.1875 19.2 30.4875 20.275 30.525C18.5125 29.35 17.35 27.325 17.35 25.05C17.35 23.85 17.675 22.7125 18.2375 21.7375C21.4875 25.725 26.325 28.3375 31.7875 28.6125C31.675 28.1375 31.6125 27.6375 31.6125 27.1125C31.6125 23.4875 34.5625 20.5375 38.1875 20.5375C40.075 20.5375 41.7875 21.3375 42.9875 22.6125C44.4875 22.3125 45.8875 21.775 47.1625 21.0125C46.675 22.55 45.625 23.8375 44.275 24.65C45.6 24.4875 46.875 24.1375 48.05 23.6125C47.175 24.9375 46.0625 26.0875 44.775 27.025Z" fill="#E3BF6D"/>
</svg>
